<?xml version="1.0" encoding="utf-8"?>
<!-- Generator: Adobe Illustrator 26.0.2, SVG Export Plug-In . SVG Version: 6.00 Build 0)  -->
<svg version="1.1" id="Layer_1" xmlns="http://www.w3.org/2000/svg" xmlns:xlink="http://www.w3.org/1999/xlink" x="0px" y="0px"
	 viewBox="0 0 841.9 595.3" style="enable-background:new 0 0 841.9 595.3;" xml:space="preserve">
<g>
	<path d="M182,298.1c0-16.3,12.2-28.7,28.9-28.7c12.9,0,22.7,7.5,26.4,17.9h-7.2c-3-7.2-9.7-11.9-19.2-11.9
		c-13.3,0-22.2,9.7-22.2,22.7c0,13.1,9.1,22.7,22.3,22.7c11.5,0,20.5-7.4,20.9-18.5h-22.8v-5.6h30.1c0.1,20-13.1,30.1-28.3,30.1
		C194.3,326.8,182,314.5,182,298.1z"/>
	<path d="M296.4,270.5h19c11.5,0,18.3,6.6,18.3,16.3c0,8.1-5.4,14.1-11.7,15.9l13.2,23h-7.6l-12.5-22.3h-12.3v22.3h-6.5V270.5z
		 M315.5,297.7c6.6,0,11.6-3.6,11.6-10.9c0-5.8-4-10.7-12-10.7h-12.1v21.5H315.5z"/>
	<path d="M391.9,270.5h6.5v55.3h-6.5V270.5z"/>
	<path d="M459.5,270.5h16.7c17.8,0,28.2,11.5,28.2,27.6c0,17.1-10.4,27.6-28.2,27.6h-16.7V270.5z M476.2,320.1
		c13.3,0,21.5-8.1,21.5-21.9c0-13.3-8-21.9-21.5-21.9H466v43.8H476.2z"/>
	<path d="M561.5,270.5h6.5v55.3h-6.5V270.5z"/>
	<path d="M624.7,309.3h6.5c0,6.4,5.3,11.5,13.8,11.5c7.4,0,12.7-3.6,12.7-9.3c0-17.3-31.1-5.2-31.1-27.3c0-7.9,6.7-14.8,18-14.8
		c8.5,0,18.5,4.6,18.5,16h-6.7c0-6.3-4.3-10.2-11.9-10.2c-8,0-11.4,4.3-11.4,8.9c0,15.1,31.2,4.6,31.2,26.9
		c0,8.7-7.2,15.6-19.5,15.6C633.6,326.8,624.7,319.6,624.7,309.3z"/>
	<path d="M721.4,270.5h7.2l21.8,48.2h0.5l20.2-48.2h7.2v55.3h-6.3v-41.2h-0.5l-17.1,41.2h-7.4l-18.7-41.2h-0.5v41.2h-6.3V270.5z"/>
	<g>
		<rect x="63.8" y="267.6" width="14.7" height="6.9"/>
		<rect x="93" y="267.6" width="30.1" height="6.8"/>
		<rect x="63" y="317.9" transform="matrix(6.123234e-17 -1 1 6.123234e-17 -254.0838 390.5932)" width="10.6" height="8.9"/>
		<rect x="63.8" y="293.7" width="38.2" height="6.9"/>
		<rect x="102.7" y="307.2" transform="matrix(-1.836970e-16 1 -1 -1.836970e-16 430.3544 191.0013)" width="33.9" height="6.9"/>
		<rect x="87.2" y="320.8" width="14.7" height="6.9"/>
	</g>
</g>
</svg>
